<?xml version="1.0" encoding="utf-8"?>
<!-- Generator: Adobe Illustrator 11.0, SVG Export Plug-In  -->
<!DOCTYPE svg PUBLIC "-//W3C//DTD SVG 1.0//EN"    "http://www.w3.org/TR/2001/REC-SVG-20010904/DTD/svg10.dtd" [
	<!ENTITY ns_flows "http://ns.adobe.com/Flows/1.0/">
	<!ENTITY ns_svg "http://www.w3.org/2000/svg">
	<!ENTITY ns_xlink "http://www.w3.org/1999/xlink">
]>
<svg  xmlns="&ns_svg;" xmlns:xlink="&ns_xlink;" xmlns:a="http://ns.adobe.com/AdobeSVGViewerExtensions/3.0/"
	 width="468" height="635" viewBox="-0.368 -0.512 468 635" xml:space="preserve">
	<defs>
	</defs>
	<g>
		<path fill="#C91109" d="M0,400.232c0,129.029,104.601,233.633,233.632,233.633s233.633-104.604,233.633-233.633V0H0V400.232z"/>
		<rect x="24.304" y="24.304" fill="#FFFFFF" width="418.656" height="88.919"/> 
		<rect x="24.304" y="113.224" width="418.656" height="85.313"/> 
		<rect x="24.304" y="198.536" fill="#FFFFFF" width="418.656" height="15.534"/> 
		<rect x="24.304" y="299.384" fill="#FFFFFF" width="418.656" height="15.536"/> 
		<path fill="#FFFFFF" d="M24.304,400.232c0,115.606,93.72,209.328,209.328,209.328c115.608,0,209.328-93.722,209.328-209.328
			H24.304z"/>
		<path d="M233.632,550.369c82.919,0,150.136-67.22,150.136-150.137H83.496C83.496,483.149,150.713,550.369,233.632,550.369z"/>
		<path fill="#FFFFFF" d="M101.514,427.354c5.132,25.128,17.278,47.69,34.27,65.611l25.224,10.985l0.229,0.239l46.558-58.53
			l0.597-0.75l-21.233-44.677h-80.142L101.514,427.354z"/>
		<path fill="#FFFFFF" d="M258.874,444.909l47.154,59.28l0.228-0.239l25.225-10.985c16.99-17.921,29.138-40.483,34.27-65.611
			l-5.502-27.121h-80.143L258.874,444.909z"/>
		<rect x="24.304" y="314.92" fill="#284712" width="418.656" height="85.313"/> 
		<path fill="#FFFFFF" d="M181.876,529.017l-5.669,5.718c17.63,7.537,37.039,11.715,57.425,11.715
			c20.388,0,39.796-4.178,57.425-11.715l-5.67-5.718c-15.993,6.435-33.459,9.983-51.755,9.983S197.872,535.451,181.876,529.017z"/>
		<path fill="#FFFFFF" d="M255.431,446.88h-43.598l-47.87,60.179l16.082,16.927c16.428,7.123,34.541,11.095,53.588,11.095
			c19.048,0,37.16-3.972,53.589-11.095l16.08-16.927L255.431,446.88z"/>
		<path fill="#FFFFFF" d="M90.526,430.34c5.583,26.666,18.43,50.656,36.375,69.816l3.429-7.277
			c-15.345-17.098-26.511-38.023-31.88-61.174L90.526,430.34z"/>
		<path fill="#FFFFFF" d="M336.933,492.879l3.431,7.277c17.946-19.16,30.792-43.15,36.374-69.816l-7.924,1.365
			C363.445,454.855,352.28,475.781,336.933,492.879z"/>
		<path d="M74.309,413.833l3.127,22.222l-6.599,0.931l-1.967-13.974l-9.995,1.405l1.516,10.771l-6.599,0.931l-1.516-10.774
			l-15.14,2.132l-1.161-8.251L74.309,413.833z"/>
		<path d="M54.03,460.941c-1.88-0.237-3.074-1.161-3.583-2.775c-0.517-1.635-0.036-3.09,1.445-4.367
			c1.48-1.277,4.655-2.686,9.523-4.224c4.958-1.567,8.385-2.241,10.278-2.021c1.895,0.222,3.099,1.14,3.61,2.757
			c0.515,1.633,0.066,3.081-1.348,4.349c-1.415,1.265-4.611,2.687-9.586,4.261C59.354,460.503,55.909,461.177,54.03,460.941z
			 M80.245,459.461c2.473-3.243,3.037-6.991,1.691-11.248c-2.754-8.713-10.481-11.062-23.18-7.05
			c-6.231,1.973-10.622,4.568-13.168,7.794c-2.547,3.226-3.136,7.004-1.768,11.331c2.754,8.713,10.489,11.059,23.206,7.041
			C73.366,465.326,77.772,462.702,80.245,459.461z"/>
		<path d="M68.015,492.47c-1.892,0.109-3.233-0.582-4.029-2.077c-0.806-1.513-0.598-3.032,0.625-4.561
			c1.223-1.524,4.088-3.488,8.594-5.886c4.59-2.447,7.836-3.733,9.739-3.858c1.903-0.129,3.254,0.554,4.05,2.049
			c0.804,1.513,0.627,3.02-0.532,4.523c-1.16,1.5-4.044,3.481-8.65,5.936C73.171,491.066,69.905,492.355,68.015,492.47z
			 M93.521,486.233c1.841-3.638,1.713-7.427-0.387-11.367c-4.295-8.067-12.32-8.968-24.075-2.705
			c-5.769,3.072-9.612,6.426-11.529,10.061c-1.917,3.636-1.807,7.457,0.328,11.466c4.295,8.064,12.328,8.961,24.1,2.692
			C87.826,493.253,91.681,489.872,93.521,486.233z"/>
		<path d="M98.881,486.699l14.215,18.862l-5.713,4.306l-4.601-6.106l-25.2,18.993l-5.014-6.651l25.201-18.993l-4.602-6.104
			L98.881,486.699z"/>
		<path d="M114.835,516.136l2.378,2.313c1.625,1.584,2.371,2.942,2.235,4.085s-0.607,2.132-1.42,2.968
			c-0.88,0.903-1.912,1.461-3.095,1.672c-1.183,0.215-2.737-0.615-4.66-2.486l-1.931-1.88L114.835,516.136z M86.453,533.775
			l9.269,9.022c2.244,2.184,4.179,3.666,5.807,4.44c1.626,0.778,3.464,0.953,5.511,0.527c2.047-0.429,3.95-1.544,5.708-3.351
			c3.343-3.433,4.028-7.194,2.058-11.282c3.44,1.642,6.668,0.913,9.681-2.184c1.723-1.771,2.787-3.617,3.193-5.54
			c0.406-1.921,0.226-3.596-0.543-5.029c-0.769-1.43-2.234-3.203-4.401-5.31l-9.283-9.034L86.453,533.775z M103.968,527.302
			l2.915,2.836c1.376,1.338,2.136,2.615,2.281,3.828c0.146,1.216-0.437,2.496-1.748,3.844c-2.356,2.42-4.903,2.297-7.642-0.367
			l-2.915-2.837L103.968,527.302z"/>
		<path d="M126.428,549.555l11.909-10.882l-5.713,15.11L126.428,549.555z M109.035,555.36l6.325,4.318l5.987-5.524l8.815,6.018
			l-2.934,7.607l7.06,4.82l12.884-38.076l-6.928-4.729L109.035,555.36z"/>
		<path d="M156.978,540.563l7.509,3.607l-13.66,28.445l10.955,5.261l-3.097,6.449l-18.463-8.866L156.978,540.563z"/>
		<path d="M176.831,549.723l7.933,2.538l-9.62,30.053l11.574,3.706l-2.182,6.813l-19.506-6.244L176.831,549.723z"/>
		<path d="M218.8,559.434l21.839,0.814l-0.248,6.658l-13.809-0.515l-0.375,10.088l10.576,0.396l-0.247,6.658l-10.576-0.393
			l-0.569,15.276l-8.03-0.298L218.8,559.434z"/>
		<path d="M242.755,559.911l22.193-2.597l0.772,6.621l-14.21,1.659l1.035,8.86l10.999-1.286l0.775,6.618l-10.999,1.286l1.104,9.442
			l14.211-1.664l0.81,6.912l-22.193,2.595L242.755,559.911z"/>
		<path d="M279.059,560.284c1.707-0.514,3.139-0.612,4.295-0.299c1.154,0.312,2.311,1.222,3.466,2.729
			c1.156,1.506,2.21,3.831,3.157,6.979c1.021,3.399,1.511,6.088,1.471,8.06c-0.039,1.976-0.447,3.474-1.221,4.496
			c-0.773,1.023-2.061,1.801-3.859,2.343l-1.31,0.396l-7.311-24.308L279.059,560.284z M279.28,593.682l9.255-2.783
			c2.533-0.76,4.563-1.646,6.094-2.659s2.743-2.465,3.634-4.352c0.894-1.886,1.363-4.244,1.411-7.071
			c0.047-2.83-0.429-5.908-1.431-9.239c-1.41-4.689-3.208-8.205-5.394-10.55c-2.185-2.344-4.561-3.685-7.131-4.031
			c-2.567-0.343-5.652,0.027-9.253,1.109l-8.332,2.504L279.28,593.682z"/>
		<path d="M296.852,547.196l19.942-10.079l3.006,5.947l-12.771,6.455l4.022,7.96l9.884-4.995l3.005,5.947l-9.885,4.996l4.288,8.482
			l12.771-6.453l3.138,6.212l-19.941,10.075L296.852,547.196z"/>
		<path d="M332.354,533.592c0.973-0.723,1.795-1.151,2.464-1.283c0.669-0.131,1.439-0.009,2.313,0.367
			c0.871,0.378,1.692,1.085,2.461,2.117c2.226,2.992,2.063,5.438-0.49,7.341l-2.852,2.122l-6.495-8.728L332.354,533.592z
			 M342.68,566.346l6.445-4.796l-9.13-12.266l3.302-2.455l13.034,9.355l7.022-5.229l-15.496-9.539
			c1.586-3.635,0.932-7.396-1.962-11.285c-1.229-1.654-2.616-2.938-4.158-3.856c-1.543-0.915-3.088-1.396-4.634-1.433
			c-1.549-0.04-2.868,0.208-3.959,0.75c-1.092,0.542-2.531,1.477-4.315,2.806l-9.267,6.9L342.68,566.346z"/>
		<path d="M364.537,529.259l-9.034-13.427l14,8.141L364.537,529.259z M367.811,547.095l5.094-5.418l-4.565-6.734l7.074-7.527
			l7.035,4.107l5.632-5.993l-35.384-18.875l-5.568,5.923L367.811,547.095z"/>
		<path d="M358.146,500.817l13.102-18.821l5.87,4.088l-4.255,6.112l25.899,18.029l-4.591,6.594l-25.899-18.026l-4.255,6.113
			L358.146,500.817z"/>
		<path d="M372.374,479.37l3.809-7.077l34.086,18.348l-3.81,7.077L372.374,479.37z"/>
		<path d="M412.882,461.973c1.349,1.322,1.738,2.759,1.17,4.309c-0.58,1.59-1.844,2.426-3.79,2.515
			c-1.945,0.086-5.314-0.747-10.109-2.502c-4.883-1.789-8.011-3.339-9.382-4.648c-1.372-1.314-1.773-2.754-1.197-4.325
			c0.574-1.567,1.805-2.416,3.694-2.545c1.89-0.128,5.286,0.705,10.187,2.499C408.393,459.081,411.534,460.646,412.882,461.973z
			 M391.15,447.321c-3.914,0.989-6.617,3.522-8.106,7.595c-3.056,8.343,1.671,14.805,14.178,19.383
			c6.137,2.248,11.188,2.9,15.155,1.963c3.966-0.939,6.704-3.481,8.223-7.625c3.048-8.327-1.689-14.782-14.213-19.368
			C400.142,446.981,395.063,446.336,391.15,447.321z"/>
		<path d="M389.22,438.241l1.441-8.875l25.25-5.455l-23.738-3.854l1.007-6.193l38.208,6.209l-1.158,7.138l-29.451,6.554
			l27.656,4.493l-1.006,6.188L389.22,438.241z"/>
		<polygon points="114.853,63.202 135.823,41.715 113.263,41.715 98.49,59.236 98.49,41.715 81.242,41.715 81.242,95.811 
			98.49,95.811 98.49,79.967 103.104,75.24 116.066,95.811 139.077,95.811 "/>
		<polygon points="202.762,95.811 202.762,79.347 164.346,79.347 164.346,75.819 179.503,75.819 179.503,61.707 164.346,61.707 
			164.346,58.179 202.762,58.179 202.762,41.715 147.098,41.715 147.098,95.811 "/>
		<polygon points="248.28,71.668 227.804,41.715 210.556,41.715 210.556,95.811 227.804,95.811 227.804,66.021 248.28,95.811 
			265.527,95.811 265.527,41.715 248.28,41.715 "/>
		<polygon points="295.274,95.811 312.521,95.811 312.521,76.424 335.766,41.715 319.726,41.715 303.898,65.35 288.07,41.715 
			272.031,41.715 295.274,76.424 "/>
		<path d="M368.436,95.811h17.586l-20.294-54.096h-18.414L326.83,95.811h17.154l1.443-4.704h21.581L368.436,95.811z M349.754,76.995
			l6.525-21.272l6.451,21.272H349.754z"/>
		<path d="M312.02,218.477c0,0.303,0.026,0.608,0.081,0.914c0.668,3.791,5.255,7.005,10.116,10.41l63.058,44.158l37.962-54.209
			l-62.253-43.595l9.382-13.402c3.877-5.539-3.008-10.359-9.082-14.611l-39.122-27.397l-0.802-0.564l-54.482,77.8
			c-9.368-16.586-21.728-29.039-32.983-37.916l-0.262-0.204l-0.262,0.204c-11.258,8.876-23.616,21.329-32.983,37.914l-54.481-77.799
			l-0.803,0.564l-39.122,27.397c-6.074,4.252-12.958,9.073-9.082,14.611l9.383,13.401l-62.254,43.596l37.962,54.209l63.058-44.159
			c4.861-3.404,9.449-6.618,10.117-10.41c0.054-0.306,0.081-0.611,0.081-0.913c0-1.129-0.374-2.231-1.115-3.29
			c0,0-8.384-11.971-9.384-13.4c1.479-1.036,27.046-18.94,28.526-19.976c0.266,0.38,8.426,12.032,20.668,29.515
			c-5.276,13.001-8.614,28.063-8.614,45.401c0,17.34,3.338,32.402,8.614,45.404l-50.526,72.15l10.596,7.42
			c0,0,20.808-29.713,46.376-66.222c9.367,16.583,21.725,29.032,32.983,37.907l0.262,0.211l0.262-0.211
			c11.255-8.875,23.615-21.324,32.983-37.909c25.569,36.512,46.377,66.225,46.377,66.225l10.597-7.42l-50.526-72.151
			c5.275-13.002,8.614-28.064,8.614-45.403c0-17.337-3.339-32.397-8.614-45.399c12.243-17.484,20.403-29.136,20.67-29.517
			c1.479,1.036,27.046,18.939,28.525,19.977c-1.002,1.428-9.385,13.4-9.385,13.4C312.394,216.245,312.02,217.348,312.02,218.477z"/>
		<path fill="#FFFFFF" d="M329.227,128.083l-7.385-5.173c-17.84,25.474-36.148,51.62-53.902,76.972
			c1.604,2.968,3.111,6.065,4.499,9.295C291.087,182.546,310.418,154.94,329.227,128.083z"/>
		<path fill="#FFFFFF" d="M267.938,313.577c27.323,39.019,45.521,65.004,45.795,65.396c1.202-0.842,6.185-4.33,7.387-5.172
			c-0.283-0.405-19.761-28.219-48.684-69.519C271.05,307.511,269.543,310.608,267.938,313.577z"/>
		<path fill="#FFFFFF" d="M146.145,373.801c1.202,0.842,6.185,4.33,7.387,5.172c0.273-0.392,18.471-26.377,45.794-65.394
			c-1.604-2.969-3.111-6.065-4.498-9.294C165.906,345.582,146.429,373.396,146.145,373.801z"/>
		<path fill="#FFFFFF" d="M145.424,122.91l-7.385,5.173c18.807,26.856,38.138,54.461,56.787,81.092
			c1.388-3.229,2.894-6.326,4.499-9.295C181.571,174.528,163.263,148.384,145.424,122.91z"/>
		<path fill="#FF1100" d="M351.578,163.708c1.274-1.819,4.875-0.939,8.358-0.087c2.338,0.571,4.72,1.152,6.718,1.015l-7.276,10.394
			c-4.053-2.848-8.014-5.775-8.509-8.583C350.705,165.518,350.937,164.622,351.578,163.708z"/>
		<path fill="#FF1100" d="M314.739,216.312l34.323-49.012c0.97,3.569,5.354,6.648,9.991,9.897c0,0,59.889,41.938,61.452,43.033
			c-1.073,1.533-34.638,49.465-35.712,50.998c-1.564-1.095-61.457-43.036-61.457-43.036c-4.315-3.024-8.779-6.15-9.307-9.142
			c-0.033-0.191-0.051-0.381-0.051-0.571C313.979,217.752,314.231,217.037,314.739,216.312z"/>
		<path fill="#FF1100" d="M330.831,129.207c15.876,11.119,29.328,20.539,29.328,20.539c5.494,3.846,9.348,6.806,9.348,9.713
			c0,0.723-0.238,1.441-0.747,2.169c-1.273,1.817-4.875,0.939-8.358,0.087c-4.124-1.007-8.387-2.048-10.43,0.867l-26.326,37.601
			c-5.021-3.516-20.63-14.446-28.527-19.977L330.831,129.207z"/>
		<path fill="#FFF200" d="M116.396,166.445c-0.495,2.808-4.456,5.734-8.509,8.583l-7.277-10.393c1.998,0.137,4.38-0.444,6.718-1.015
			c3.483-0.852,7.084-1.732,8.358,0.087C116.329,164.622,116.56,165.518,116.396,166.445z"/>
		<path fill="#FFF200" d="M152.525,216.311L118.203,167.3c-0.971,3.569-5.353,6.647-9.992,9.896c0,0-59.888,41.938-61.452,43.034
			c1.073,1.533,34.639,49.465,35.712,50.998c1.565-1.096,61.456-43.037,61.456-43.037c4.317-3.023,8.78-6.149,9.307-9.142
			c0.034-0.191,0.051-0.381,0.051-0.57C153.285,217.751,153.034,217.037,152.525,216.311z"/>
		<path fill="#FFF200" d="M136.434,129.207c-15.875,11.119-29.329,20.539-29.329,20.539c-5.493,3.846-9.347,6.806-9.347,9.713
			c0,0.723,0.238,1.441,0.747,2.169c1.274,1.817,4.875,0.939,8.359,0.087c4.123-1.007,8.386-2.048,10.429,0.867l26.327,37.6
			c5.021-3.516,20.628-14.446,28.526-19.977L136.434,129.207z"/>
		<path fill="#C91109" d="M273.04,212.89c-9.325-23.777-25.226-40.707-39.408-51.943c-14.185,11.236-30.083,28.166-39.407,51.943
			c9.341,18.266,14.267,26.8,14.267,43.837c0,17.038-4.925,25.569-14.269,43.841c9.323,23.776,25.225,40.701,39.41,51.941
			c14.185-11.24,30.083-28.165,39.409-51.941c-9.348-18.272-14.271-26.803-14.271-43.841
			C258.771,239.69,263.693,231.156,273.04,212.89z"/>
		<ellipse fill="#FFFFFF" cx="233.633" cy="256.727" rx="7.345" ry="12.288"/> 
		<path fill="#FFFFFF" d="M221.203,312.943c0,20.178,6.092,31.49,9.748,36.461V276.48
			C227.295,281.451,221.203,292.764,221.203,312.943z"/>
		<path fill="#FFFFFF" d="M236.316,276.48v72.924c3.654-4.971,9.743-16.283,9.743-36.461
			C246.06,292.764,239.971,281.451,236.316,276.48z"/>
		<path fill="#FFFFFF" d="M246.06,200.513c0-20.18-6.089-31.49-9.743-36.464v72.926C239.971,232.003,246.06,220.69,246.06,200.513z"
			/>
		<path fill="#FFFFFF" d="M230.95,236.975v-72.926c-3.655,4.974-9.748,16.284-9.748,36.464
			C221.203,220.69,227.295,232.003,230.95,236.975z"/>
	</g>
</svg>
